<?xml version="1.0" encoding="UTF-8"?>
<svg version="1.1" xmlns="http://www.w3.org/2000/svg" width="500" height="500">
<path d="M0 0 C1.0504248 0.40714233 1.0504248 0.40714233 2.12207031 0.82250977 C6.7038672 2.60689603 11.25588606 4.46495489 15.8125 6.3125 C22.57921466 9.04645364 29.42853264 11.48239368 36.33496094 13.83959961 C41.21701934 15.51439758 46.01362064 17.3291967 50.79663086 19.26806641 C56.39575834 21.50890355 62.04642522 23.6175097 67.6875 25.75 C68.98275892 26.24020392 70.27800623 26.73043852 71.57324219 27.22070312 C74.10162845 28.17744793 76.63032976 29.1333473 79.15917969 30.08886719 C82.00517938 31.16438558 84.85039683 32.24193173 87.6953125 33.3203125 C94.27640615 35.80892375 100.86313755 38.2216335 107.5625 40.375 C107.5625 41.035 107.5625 41.695 107.5625 42.375 C108.201875 42.643125 108.84125 42.91125 109.5 43.1875 C111.5625 44.375 111.5625 44.375 112.5625 47.375 C112.67231213 50.17770091 112.72622718 52.95467909 112.73046875 55.7578125 C112.73470352 56.59597504 112.73893829 57.43413757 112.74330139 58.29769897 C112.75323706 61.03184956 112.75321219 63.76583444 112.75 66.5 C112.74939575 67.43126709 112.7487915 68.36253418 112.74816895 69.32202148 C112.65767174 120.53460833 104.20149401 167.78844545 74.5625 210.375 C74.19737305 210.95169434 73.83224609 211.52838867 73.45605469 212.12255859 C72.53889368 213.57113099 71.55603722 214.97770616 70.5625 216.375 C69.9025 216.375 69.2425 216.375 68.5625 216.375 C68.3046875 216.95121094 68.046875 217.52742187 67.78125 218.12109375 C66.4576324 220.56893785 64.9324228 222.38137727 63.0625 224.4375 C61.00434439 226.70932007 59.27111829 228.81207257 57.5625 231.375 C56.9025 231.375 56.2425 231.375 55.5625 231.375 C55.3046875 231.95765625 55.046875 232.5403125 54.78125 233.140625 C53.46415983 235.5552903 52.01161616 237.19240177 50.0625 239.125 C49.4540625 239.73859375 48.845625 240.3521875 48.21875 240.984375 C46.5625 242.375 46.5625 242.375 44.5625 242.375 C44.5625 243.035 44.5625 243.695 44.5625 244.375 C43.9025 244.375 43.2425 244.375 42.5625 244.375 C42.5625 245.035 42.5625 245.695 42.5625 246.375 C41.9025 246.375 41.2425 246.375 40.5625 246.375 C40.5625 247.035 40.5625 247.695 40.5625 248.375 C38.6640625 250.1015625 38.6640625 250.1015625 36.1875 252 C35.37539063 252.63164062 34.56328125 253.26328125 33.7265625 253.9140625 C31.5625 255.375 31.5625 255.375 29.5625 255.375 C29.5625 256.035 29.5625 256.695 29.5625 257.375 C28.23999023 258.56079102 28.23999023 258.56079102 26.37109375 259.87890625 C25.68047852 260.3682666 24.98986328 260.85762695 24.27832031 261.36181641 C23.52647461 261.88179199 22.77462891 262.40176758 22 262.9375 C21.23655273 263.47036621 20.47310547 264.00323242 19.68652344 264.55224609 C14.65587462 268.02628448 9.54999634 271.34665825 4.3125 274.5 C3.40262329 275.04829468 3.40262329 275.04829468 2.47436523 275.60766602 C-2.92803138 278.79058497 -7.06356062 280.94395449 -13.4375 280.375 C-21.0182999 277.68942515 -27.93803334 272.92856871 -34.6875 268.625 C-35.45102783 268.14119873 -36.21455566 267.65739746 -37.0012207 267.15893555 C-37.70722412 266.69914307 -38.41322754 266.23935059 -39.140625 265.765625 C-40.09437012 265.1473584 -40.09437012 265.1473584 -41.06738281 264.51660156 C-41.51952148 264.13987305 -41.97166016 263.76314453 -42.4375 263.375 C-42.4375 262.715 -42.4375 262.055 -42.4375 261.375 C-43.200625 261.08625 -43.96375 260.7975 -44.75 260.5 C-47.4375 259.375 -47.4375 259.375 -50.4375 257.375 C-50.4375 256.715 -50.4375 256.055 -50.4375 255.375 C-51.2109375 255.0346875 -51.2109375 255.0346875 -52 254.6875 C-55.33297005 252.89282382 -58.58453671 250.87534985 -61.4375 248.375 C-61.4375 247.715 -61.4375 247.055 -61.4375 246.375 C-62.0975 246.375 -62.7575 246.375 -63.4375 246.375 C-63.4375 245.715 -63.4375 245.055 -63.4375 244.375 C-64.0975 244.375 -64.7575 244.375 -65.4375 244.375 C-67.15108643 242.75661281 -68.8082726 241.07828319 -70.4375 239.375 C-71.54161768 238.3124491 -72.64578412 237.24994885 -73.75 236.1875 C-76.4375 233.375 -76.4375 233.375 -76.4375 231.375 C-77.0975 231.375 -77.7575 231.375 -78.4375 231.375 C-80.21484375 229.4609375 -80.21484375 229.4609375 -82.375 226.75 C-83.17808594 225.74324219 -83.98117188 224.73648438 -84.80859375 223.69921875 C-85.23640137 223.15700684 -85.66420898 222.61479492 -86.10498047 222.05615234 C-87.44407884 220.36669991 -88.80031976 218.69231907 -90.16015625 217.01953125 C-113.97321239 187.53689997 -126.78317866 152.80104596 -131.4375 115.375 C-131.54191406 114.56901367 -131.64632812 113.76302734 -131.75390625 112.93261719 C-133.4769924 98.95707987 -133.71549581 84.90047494 -133.84390259 70.83514404 C-133.86455149 68.7865862 -133.89311339 66.73809208 -133.92977905 64.6897583 C-133.97770562 61.77969009 -133.99147192 58.87135889 -133.99609375 55.9609375 C-134.0155304 55.08371033 -134.03496704 54.20648315 -134.05499268 53.30267334 C-134.02427186 49.07178558 -133.78684858 46.24877346 -131.09692383 42.87475586 C-128.03791657 39.99940698 -125.65718077 38.90418395 -121.6875 37.5625 C-121.00993652 37.32587646 -120.33237305 37.08925293 -119.63427734 36.84545898 C-118.10272893 36.3107475 -116.56852166 35.7836121 -115.03222656 35.26269531 C-110.02091377 33.5482492 -105.04511143 31.73327306 -100.0625 29.9375 C-98.98653564 29.55190918 -97.91057129 29.16631836 -96.80200195 28.76904297 C-88.99481155 25.96409974 -81.25420222 23.01797488 -73.53515625 19.98046875 C-67.6457864 17.66367935 -61.71409677 15.46134289 -55.78417969 13.25097656 C-52.04650869 11.85576604 -48.31134847 10.45387445 -44.57617188 9.05200195 C-42.49207107 8.27046415 -40.40743897 7.49034163 -38.32226562 6.71166992 C-33.72105177 4.99207988 -29.12596631 3.26267683 -24.5546875 1.46484375 C-23.46607422 1.04138672 -23.46607422 1.04138672 -22.35546875 0.609375 C-20.46077487 -0.12966429 -18.57005069 -0.87885892 -16.6796875 -1.62890625 C-10.41296622 -3.55422423 -5.93641056 -2.3834703 0 0 Z " fill="#032648" transform="translate(260.4375,106.625)"/>
<path d="M0 0 C1.0415625 -0.020625 2.083125 -0.04125 3.15625 -0.0625 C12.82387548 -0.11195077 12.82387548 -0.11195077 16.625 3.25 C18.86331199 5.97556855 20.33028814 8.57204328 21.6484375 11.8359375 C22.02299072 12.75133301 22.39754395 13.66672852 22.78344727 14.60986328 C23.18490967 15.6048584 23.58637207 16.59985352 24 17.625 C27.94693064 27.26152711 32.02152655 36.83199309 36.1875 46.375 C40.4697429 56.19413084 44.66119994 66.04251786 48.64672852 75.98681641 C50.67058657 81.01640925 52.83998467 85.95460532 55.09912109 90.88256836 C58.23254964 97.79766916 61.25924233 104.75900015 64.26538086 111.73022461 C65.05016879 113.54287059 65.84058858 115.35308809 66.63647461 117.16088867 C67.79891603 119.80327809 68.94223688 122.45324558 70.08203125 125.10546875 C70.43820023 125.90462204 70.7943692 126.70377533 71.16133118 127.52714539 C73.35351453 132.69782726 74.14053332 136.62707241 73.625 142.25 C71.45673795 145.8121448 69.47460974 147.73415627 65.625 149.25 C60.990757 149.70716233 56.3419548 149.62031037 51.6875 149.625 C50.41197266 149.64949219 49.13644531 149.67398438 47.82226562 149.69921875 C46.59314453 149.70308594 45.36402344 149.70695313 44.09765625 149.7109375 C42.41555054 149.72326416 42.41555054 149.72326416 40.69946289 149.73583984 C34.91243904 148.82134946 31.6160845 144.2410845 27.625 140.25 C25.20349384 139.03924692 23.60958579 139.09733157 20.90332031 139.05712891 C19.92179993 139.04106598 18.94027954 139.02500305 17.92901611 139.00845337 C13.43315287 138.96400767 8.93743787 138.92293019 4.44140625 138.89990234 C2.07086362 138.88335009 -0.29962924 138.85607002 -2.66992188 138.81787109 C-6.08750305 138.76307162 -9.50391347 138.74122176 -12.921875 138.7265625 C-14.50654572 138.69255844 -14.50654572 138.69255844 -16.12322998 138.65786743 C-22.39939452 138.61199769 -22.39939452 138.61199769 -27.77832031 141.47021484 C-29.48537352 143.29764131 -31.16714719 145.1490744 -32.8203125 147.02539062 C-36.11842621 149.8973719 -37.92343608 149.86933721 -42.25 149.84375 C-43.56484375 149.84117187 -44.8796875 149.83859375 -46.234375 149.8359375 C-47.2543457 149.81418457 -47.2543457 149.81418457 -48.29492188 149.79199219 C-50.36945557 149.75011193 -52.4407394 149.75092899 -54.515625 149.7578125 C-65.73510534 149.64781759 -65.73510534 149.64781759 -70.375 146.25 C-72.65661517 143.31649478 -72.71124694 140.2551246 -72.67211914 136.60717773 C-72.08394431 131.94092633 -69.91359795 127.84749929 -67.9375 123.625 C-67.01596202 121.58696111 -66.09674932 119.54786945 -65.1796875 117.5078125 C-64.71143555 116.47301758 -64.24318359 115.43822266 -63.76074219 114.37207031 C-61.58078255 109.460632 -59.57030582 104.48372974 -57.5625 99.5 C-55.04012435 93.27171823 -52.46105352 87.10151461 -49.6171875 81.01171875 C-47.94518996 77.29441604 -46.41345341 73.52415909 -44.875 69.75 C-42.59793014 64.16430993 -40.22069465 58.65317075 -37.68359375 53.1796875 C-36.01558514 49.44533987 -34.47830586 45.66323129 -32.9375 41.875 C-30.42268238 35.70245061 -27.75908834 29.63054805 -24.921875 23.59765625 C-22.77385935 18.94904662 -20.74653651 14.2496045 -18.734375 9.54077148 C-17.4551768 6.57707356 -16.17170685 3.94506027 -14.375 1.25 C-9.67171926 -0.31776025 -4.92610228 0.02420689 0 0 Z " fill="#16B3A0" transform="translate(249.375,151.75)"/>
<path d="M0 0 C5.97793998 2.48221933 9.98470039 6.34631322 13 12 C14.93367076 17.80101229 14.91053871 23.81395243 12.25 29.375 C10.95435742 31.79147624 9.94781917 33.04148878 7.76953125 34.7734375 C5.60964018 36.96412398 5.60964018 36.96412398 6.30859375 40.328125 C6.66041382 41.64221685 7.03853744 42.94944487 7.4375 44.25 C7.72705566 45.29704102 7.72705566 45.29704102 8.02246094 46.36523438 C9.05929154 50.04771383 10.21345452 53.68971343 11.39453125 57.328125 C11.62019775 58.02776367 11.84586426 58.72740234 12.07836914 59.44824219 C12.71676945 61.39848436 13.38113307 63.34017113 14.046875 65.28125 C15.13653969 69.53272864 15.39171279 72.63520034 15 77 C11.25080161 79.49946559 8.28038795 79.30597184 3.9375 79.30078125 C3.14980225 79.30506638 2.36210449 79.3093515 1.55053711 79.31376648 C-0.11375976 79.31950579 -1.77808171 79.32001297 -3.44238281 79.31567383 C-5.99066834 79.31251158 -8.53779533 79.33598449 -11.0859375 79.36132812 C-12.70312353 79.36360092 -14.32031269 79.36430471 -15.9375 79.36328125 C-16.70006104 79.372491 -17.46262207 79.38170074 -18.24829102 79.39118958 C-23.45166209 79.34559447 -23.45166209 79.34559447 -26.01391602 77.73071289 C-29.14122861 72.24184956 -25.05568873 62.59526237 -23.5625 56.875 C-23.34529297 56.02035156 -23.12808594 55.16570312 -22.90429688 54.28515625 C-21.94129563 50.51990815 -20.94323078 46.77505112 -19.83203125 43.05078125 C-18.9365845 39.76747649 -18.80150028 38.16746355 -20 35 C-21.31200404 33.64567325 -22.64631404 32.31266518 -24 31 C-27.11124382 24.67891661 -27.01307424 17.35580843 -25 10.6875 C-18.08749723 1.3988244 -11.46452597 -1.38047618 0 0 Z " fill="#032848" transform="translate(256,200)"/>
<path d="M0 0 C0.33 0 0.66 0 1 0 C1.29296875 6.0546875 1.29296875 6.0546875 1 8 C-2.74919839 10.49946559 -5.71961205 10.30597184 -10.0625 10.30078125 C-10.85019775 10.30506638 -11.63789551 10.3093515 -12.44946289 10.31376648 C-14.11375976 10.31950579 -15.77808171 10.32001297 -17.44238281 10.31567383 C-19.99066834 10.31251158 -22.53779533 10.33598449 -25.0859375 10.36132812 C-26.70312353 10.36360092 -28.32031269 10.36430471 -29.9375 10.36328125 C-30.70006104 10.372491 -31.46262207 10.38170074 -32.24829102 10.39118958 C-37.48016738 10.34534469 -37.48016738 10.34534469 -39.9921875 8.67651367 C-41.51433609 6.14439295 -41.19207023 3.8810534 -41 1 C-39.79371992 3.33214148 -38.8345262 5.49642139 -38 8 C-26.12 7.67 -14.24 7.34 -2 7 C-1.34 4.69 -0.68 2.38 0 0 Z " fill="#004350" transform="translate(270,269)"/>
<path d="M0 0 C18.15 0.33 36.3 0.66 55 1 C54.67 1.66 54.34 2.32 54 3 C53.38247864 2.99777939 52.76495728 2.99555878 52.12872314 2.99327087 C45.70496194 2.9711574 39.28121153 2.956068 32.85742188 2.94506836 C30.45963095 2.9400378 28.06184309 2.93321267 25.6640625 2.92456055 C22.21874229 2.91243918 18.77346263 2.90675892 15.328125 2.90234375 C14.25508118 2.89718246 13.18203735 2.89202118 12.07647705 2.88670349 C11.07574158 2.88662796 10.0750061 2.88655243 9.04394531 2.88647461 C8.16458313 2.884254 7.28522095 2.88203339 6.37921143 2.87974548 C4.11480237 2.99419745 2.17028138 3.36504547 0 4 C0 2.68 0 1.36 0 0 Z " fill="#23A79E" transform="translate(221,288)"/>
<path d="M0 0 C0.66 0 1.32 0 2 0 C2.16276042 2.01822917 2.32552083 4.03645833 2.48828125 6.0546875 C2.87393036 8.39519216 2.87393036 8.39519216 6 10 C6 10.66 6 11.32 6 12 C7.4540625 11.7215625 7.4540625 11.7215625 8.9375 11.4375 C10.4534375 11.2209375 10.4534375 11.2209375 12 11 C12.33 11.33 12.66 11.66 13 12 C14.55948542 12.15686249 16.12542668 12.25076639 17.69140625 12.31640625 C18.63564453 12.35830078 19.57988281 12.40019531 20.55273438 12.44335938 C22.04256836 12.50233398 22.04256836 12.50233398 23.5625 12.5625 C25.05813477 12.62727539 25.05813477 12.62727539 26.58398438 12.69335938 C29.0558415 12.79980298 31.5278031 12.90181928 34 13 C34 13.33 34 13.66 34 14 C29.60429206 14.0872253 25.20880729 14.14046869 20.8125 14.1875 C18.94368164 14.22520508 18.94368164 14.22520508 17.03710938 14.26367188 C15.83505859 14.27333984 14.63300781 14.28300781 13.39453125 14.29296875 C11.73707886 14.31653442 11.73707886 14.31653442 10.04614258 14.34057617 C6.61357437 13.9567954 4.77104392 13.0202364 2 11 C-0.56452594 7.58063208 -0.15940162 4.14444215 0 0 Z " fill="#2CAFA8" transform="translate(177,287)"/>
<path d="M0 0 C0.97591583 3.38317487 0.85856655 5.5657338 0 9 C-0.99 9.33 -1.98 9.66 -3 10 C-2.938125 10.886875 -2.87625 11.77375 -2.8125 12.6875 C-3.0235879 16.4167196 -3.92068809 17.96100567 -6 21 C-6.68096422 22.32608822 -7.35330586 23.65686601 -8 25 C-9.23435632 21.29693104 -8.61556372 20.41770581 -7.12890625 16.89453125 C-6.71962891 15.91162109 -6.31035156 14.92871094 -5.88867188 13.91601562 C-5.45103516 12.89185547 -5.01339844 11.86769531 -4.5625 10.8125 C-4.12873047 9.77673828 -3.69496094 8.74097656 -3.24804688 7.67382812 C-2.1738102 5.11218682 -1.09085232 2.55459966 0 0 Z " fill="#23A49D" transform="translate(194,246)"/>
<path d="M0 0 C0.33 0 0.66 0 1 0 C0.60271115 8.52080037 0.21772491 16.72049367 -2 25 C-2.33 25 -2.66 25 -3 25 C-3.55048791 16.33491247 -1.88081125 8.39647878 0 0 Z " fill="#061C31" transform="translate(370,212)"/>
<path d="M0 0 C0.33 0 0.66 0 1 0 C0.88648483 1.81325551 0.75887039 3.62563357 0.625 5.4375 C0.55539062 6.44683594 0.48578125 7.45617187 0.4140625 8.49609375 C0.27742188 9.32238281 0.14078125 10.14867187 0 11 C-0.99 11.495 -0.99 11.495 -2 12 C-2.65213292 14.02463255 -2.65213292 14.02463255 -3 16 C-3.33 15.34 -3.66 14.68 -4 14 C-5.32 14.33 -6.64 14.66 -8 15 C-7.38511719 14.12988281 -7.38511719 14.12988281 -6.7578125 13.2421875 C-3.78971393 8.93915465 -1.31573874 5.1313811 0 0 Z " fill="#24AB9F" transform="translate(270,222)"/>
<path d="M0 0 C-1.78809697 1.17213045 -3.58059125 2.33755526 -5.375 3.5 C-6.37273437 4.1496875 -7.37046875 4.799375 -8.3984375 5.46875 C-11 7 -11 7 -13 7 C-12.67 6.01 -12.34 5.02 -12 4 C-10.35 3.67 -8.7 3.34 -7 3 C-7 2.34 -7 1.68 -7 1 C-3.375 -1.125 -3.375 -1.125 0 0 Z " fill="#091F36" transform="translate(272,376)"/>
<path d="M0 0 C0.66 0 1.32 0 2 0 C1.39301257 4.12751449 -0.03810791 7.3321148 -2 11 C-2.33 11 -2.66 11 -3 11 C-3.125 7.625 -3.125 7.625 -3 4 C-2.34 3.34 -1.68 2.68 -1 2 C-0.67 1.34 -0.34 0.68 0 0 Z " fill="#002F43" transform="translate(191,248)"/>
<path d="M0 0 C6.75 0.875 6.75 0.875 9 2 C9 3.65 9 5.3 9 7 C7.4972763 6.02501855 5.99788037 5.04490611 4.5 4.0625 C3.6646875 3.51722656 2.829375 2.97195312 1.96875 2.41015625 C1.3190625 1.94480469 0.669375 1.47945312 0 1 C0 0.67 0 0.34 0 0 Z " fill="#20ACA1" transform="translate(258,201)"/>
<path d="M0 0 C-3.3730619 2.96829447 -6.62968884 4.06350475 -11 5 C-13.21875 4.546875 -13.21875 4.546875 -15 4 C-12.87875034 3.13656176 -10.75286928 2.28449352 -8.625 1.4375 C-6.84996094 0.72400391 -6.84996094 0.72400391 -5.0390625 -0.00390625 C-2 -1 -2 -1 0 0 Z " fill="#091E37" transform="translate(172,134)"/>
<path d="M0 0 C-1.375 2.5 -1.375 2.5 -3 5 C-3.66 5 -4.32 5 -5 5 C-5.33 4.34 -5.66 3.68 -6 3 C-8.02463255 2.34786708 -8.02463255 2.34786708 -10 2 C-6.49223216 0.39644899 -3.85645121 -0.22036864 0 0 Z " fill="#08213F" transform="translate(210,120)"/>
<path d="M0 0 C0.99 0.33 1.98 0.66 3 1 C3.80078125 2.7421875 3.80078125 2.7421875 4.3125 4.875 C4.58513672 5.92300781 4.58513672 5.92300781 4.86328125 6.9921875 C5 9 5 9 3 12 C2.01 8.04 1.02 4.08 0 0 Z " fill="#081C2F" transform="translate(136,256)"/>
<path d="M0 0 C0.99 0.33 1.98 0.66 3 1 C0.525 5.455 0.525 5.455 -2 10 C-2.33 10 -2.66 10 -3 10 C-3.26046037 6.87447554 -3.27021697 5.40532546 -1.5 2.75 C-1.005 2.1725 -0.51 1.595 0 1 C0 0.67 0 0.34 0 0 Z " fill="#071A2D" transform="translate(345,295)"/>
<path d="M0 0 C0.66 0 1.32 0 2 0 C0.68775452 3.93673644 -0.91910327 6.22719294 -4 9 C-3.4739075 5.21213403 -2.61896089 2.82847776 0 0 Z " fill="#0B1D32" transform="translate(338,308)"/>
<path d="M0 0 C3 1 3 1 3.984375 2.7421875 C4.23703125 3.44601562 4.4896875 4.14984375 4.75 4.875 C5.01296875 5.57367188 5.2759375 6.27234375 5.546875 6.9921875 C6 9 6 9 5 12 C4.16440201 10.18854294 3.33157951 8.37580533 2.5 6.5625 C2.0359375 5.55316406 1.571875 4.54382813 1.09375 3.50390625 C0 1 0 1 0 0 Z " fill="#091F33" transform="translate(144,279)"/>
<path d="M0 0 C1.07894531 0.04640625 2.15789062 0.0928125 3.26953125 0.140625 C4.35621094 0.17671875 5.44289062 0.2128125 6.5625 0.25 C7.39394531 0.29640625 8.22539062 0.3428125 9.08203125 0.390625 C9.08203125 0.720625 9.08203125 1.050625 9.08203125 1.390625 C8.21191406 1.46410156 8.21191406 1.46410156 7.32421875 1.5390625 C2.64280033 1.98711905 -1.49282334 2.688646 -5.91796875 4.390625 C-4.20732299 1.34147397 -3.55091093 0.47535622 0 0 Z " fill="#28A7A0" transform="translate(242.91796875,198.609375)"/>
<path d="M0 0 C-0.66 1.32 -1.32 2.64 -2 4 C-4.64 4 -7.28 4 -10 4 C-6.86268382 1.90845588 -3.85464592 0 0 0 Z " fill="#081D34" transform="translate(185,128)"/>
<path d="M0 0 C-1.485 1.98 -1.485 1.98 -3 4 C-4.65 3.67 -6.3 3.34 -8 3 C-8 2.34 -8 1.68 -8 1 C-5.07175348 0.02391783 -3.04386724 -0.08226668 0 0 Z " fill="#0A2037" transform="translate(236,110)"/>
<path d="M0 0 C1.9375 1.125 1.9375 1.125 4 3 C4.75 6.1875 4.75 6.1875 5 9 C0.125 4.375 0.125 4.375 -1 1 C-0.67 0.67 -0.34 0.34 0 0 Z " fill="#081C2E" transform="translate(164,312)"/>
<path d="M0 0 C0.66 0 1.32 0 2 0 C2.33 0.99 2.66 1.98 3 3 C1.59554165 5.2636564 -0.1967913 7.0208685 -2 9 C-2.33 8.34 -2.66 7.68 -3 7 C-2.06421005 4.64018187 -1.06652192 2.30368736 0 0 Z " fill="#24ACA2" transform="translate(225,174)"/>
<path d="M0 0 C0.66 0 1.32 0 2 0 C0.66511872 3.59391114 -0.96022723 6.75490696 -3 10 C-3.66 9.67 -4.32 9.34 -5 9 C-3.35 6.03 -1.7 3.06 0 0 Z " fill="#28A39F" transform="translate(235,153)"/>
<path d="M0 0 C0.99 0.33 1.98 0.66 3 1 C3 1.99 3 2.98 3 4 C3.99 4.33 4.98 4.66 6 5 C6 5.66 6 6.32 6 7 C5.34 7 4.68 7 4 7 C4 6.34 4 5.68 4 5 C1.525 4.01 1.525 4.01 -1 3 C-0.67 2.01 -0.34 1.02 0 0 Z " fill="#0B2339" transform="translate(214,363)"/>
<path d="M0 0 C2.97 0.495 2.97 0.495 6 1 C6 1.66 6 2.32 6 3 C2.25 4.125 2.25 4.125 0 3 C0 2.01 0 1.02 0 0 Z M0 4 C2 5 2 5 2 5 Z " fill="#072139" transform="translate(362,146)"/>
<path d="M0 0 C0 0.66 0 1.32 0 2 C-3.3 2.66 -6.6 3.32 -10 4 C-9 2 -9 2 -6.6875 0.875 C-4 0 -4 0 0 0 Z " fill="#071B2F" transform="translate(141,145)"/>
<path d="M0 0 C0.763125 0.0825 1.52625 0.165 2.3125 0.25 C-2.3125 4.25 -2.3125 4.25 -5.6875 4.25 C-3.34903846 0.31153846 -3.34903846 0.31153846 0 0 Z " fill="#081F34" transform="translate(287.6875,362.75)"/>
<path d="M0 0 C1.20628008 2.33214148 2.1654738 4.49642139 3 7 C5.01508358 7.73323796 5.01508358 7.73323796 7 8 C5.02 8 3.04 8 1 8 C-0.35439668 5.29120665 -0.06501451 2.99066732 0 0 Z " fill="#003D49" transform="translate(229,270)"/>
<path d="M0 0 C1.1875 1.6875 1.1875 1.6875 2 4 C0.625 6.75 0.625 6.75 -1 9 C-1.66 8.67 -2.32 8.34 -3 8 C-2.01 5.36 -1.02 2.72 0 0 Z " fill="#21A59C" transform="translate(214,199)"/>
</svg>
