<?xml version="1.0" encoding="UTF-8"?>
<svg version="1.1" xmlns="http://www.w3.org/2000/svg" width="1024" height="1024">
<path d="M0 0 C337.92 0 675.84 0 1024 0 C1024 337.92 1024 675.84 1024 1024 C686.08 1024 348.16 1024 0 1024 C0 686.08 0 348.16 0 0 Z " fill="#000000" transform="translate(0,0)"/>
<path d="M0 0 C0.83938614 0.31694824 1.67877228 0.63389648 2.54359436 0.96044922 C5.27869491 1.99733167 8.00430554 3.05705586 10.73046875 4.1171875 C12.65516604 4.85166054 14.58046886 5.58454858 16.50634766 6.31591797 C20.43057248 7.8088589 24.35123671 9.31060957 28.26904297 10.8203125 C33.39545051 12.79455831 38.53090638 14.74371702 43.671875 16.6796875 C45.20752623 17.25820163 46.74317084 17.83673332 48.27880859 18.4152832 C49.0257196 18.69667145 49.77263062 18.97805969 50.54217529 19.26797485 C54.29832586 20.68515089 58.0514835 22.11019885 61.8046875 23.53515625 C68.13842377 25.93944199 74.47457085 28.33725803 80.8125 30.73046875 C82.46826794 31.35594056 84.12402971 31.98142871 85.77978516 32.60693359 C88.14215744 33.49937748 90.50459927 34.39163315 92.86737061 35.28302002 C95.03428777 36.10061896 97.20086395 36.9191108 99.3671875 37.73828125 C100.07020996 38.00408997 100.77323242 38.26989868 101.49755859 38.54376221 C105.89868807 40.2127341 110.28531204 41.91585117 114.66656494 43.63626099 C121.89806429 46.47379894 129.15818886 49.17536868 136.49371338 51.73171997 C144.87460111 54.65863351 153.17482949 57.79688389 161.48046875 60.9296875 C164.98156317 62.24924969 168.4828863 63.56820316 171.984375 64.88671875 C172.87548981 65.22245911 173.76660461 65.55819946 174.6847229 65.90411377 C180.22988018 67.99037856 185.78264923 70.05477704 191.34251404 72.10151672 C194.99223056 73.44534448 198.63957772 74.79554016 202.28683472 76.14602661 C204.02454623 76.78742208 205.7634013 77.42572882 207.50344849 78.0607605 C209.93636902 78.9490585 212.36495709 79.84838627 214.79296875 80.75 C215.49965195 81.00468552 216.20633514 81.25937103 216.93443298 81.52177429 C224.49644861 84.35581057 231.00721045 87.63996189 234.91796875 94.9921875 C236.15979705 98.67012223 236.06548585 102.27487866 236.0949707 106.13256836 C236.10143427 106.84889372 236.10789783 107.56521908 236.11455727 108.30325127 C236.13405318 110.68784189 236.1456825 113.07238527 236.15625 115.45703125 C236.16354724 116.69740426 236.16354724 116.69740426 236.1709919 117.96283531 C236.20789308 124.28511326 236.22374003 130.60731089 236.23046875 136.9296875 C236.23161934 137.85858543 236.23276993 138.78748337 236.23395538 139.74452972 C236.32048944 239.99735873 222.48981092 337.73975374 156.91796875 431.9921875 C156.16 433.02472656 155.40203125 434.05726563 154.62109375 435.12109375 C137.51063873 458.22020803 118.02191415 481.27046586 96.16015625 500.02734375 C93.99590363 501.92389265 91.89194102 503.87610267 89.79174805 505.84301758 C83.86643253 511.37453463 77.68323345 516.43893263 71.265625 521.38671875 C68.374911 523.61804713 65.58024192 525.94488346 62.79296875 528.3046875 C48.22743212 540.25098289 32.16297787 550.50281213 15.91796875 559.9921875 C14.9429541 560.56372559 13.96793945 561.13526367 12.96337891 561.72412109 C-8.1107231 573.90200705 -8.1107231 573.90200705 -16.93359375 572.90625 C-24.09844813 570.82613099 -30.57012125 567.59095073 -37.08203125 563.9921875 C-37.7997168 563.59644531 -38.51740234 563.20070313 -39.25683594 562.79296875 C-63.01580376 549.52316115 -85.31892478 533.33734449 -105.9609375 515.640625 C-108.80292786 513.2106314 -111.71723365 510.88140611 -114.64453125 508.5546875 C-119.3406404 504.74166593 -123.58104405 500.61334006 -127.80615234 496.29760742 C-130.53086502 493.51904139 -133.29188285 490.87219329 -136.26953125 488.3671875 C-140.19157989 485.03100504 -143.52305784 481.26562729 -146.921875 477.40625 C-148.79177824 475.31655704 -150.70507946 473.32883153 -152.70703125 471.3671875 C-156.37727708 467.74721901 -159.73222526 463.9079725 -163.08203125 459.9921875 C-163.87222656 459.09113281 -164.66242188 458.19007813 -165.4765625 457.26171875 C-188.65377427 430.62852236 -207.18519571 400.3999304 -223.08203125 368.9921875 C-223.46246582 368.24743164 -223.84290039 367.50267578 -224.23486328 366.73535156 C-235.42670249 344.66738088 -242.89878842 320.88292307 -249.08203125 296.9921875 C-249.35499023 295.94256836 -249.62794922 294.89294922 -249.90917969 293.81152344 C-257.15066012 265.32001266 -261.23769404 235.31873305 -263.08203125 205.9921875 C-263.1614949 204.77673248 -263.24095856 203.56127747 -263.3228302 202.30899048 C-264.06544764 190.40732503 -264.2936776 178.53218332 -264.35546875 166.609375 C-264.36079243 165.63190434 -264.3661161 164.65443367 -264.3716011 163.64734268 C-264.39802766 158.49634851 -264.41751624 153.34537629 -264.43212891 148.19433594 C-264.44556499 143.9581185 -264.47363704 139.72237169 -264.51416016 135.48632812 C-264.56349445 130.32377489 -264.58824516 125.16165348 -264.59535599 119.99887466 C-264.60204569 118.04609539 -264.61720787 116.09332498 -264.6412468 114.14068222 C-264.67294485 111.41602701 -264.67293145 108.69305364 -264.66552734 105.96826172 C-264.68193268 105.17438553 -264.69833801 104.38050934 -264.71524048 103.56257629 C-264.63733783 96.53252243 -261.75273454 91.83357483 -257.00390625 86.78125 C-252.3803305 83.95023704 -247.4110208 82.22610618 -242.33203125 80.3671875 C-241.05571865 79.89208463 -239.77968807 79.4162236 -238.50390625 78.93969727 C-234.03545372 77.27547381 -229.55920136 75.63278818 -225.08203125 73.9921875 C-224.26049561 73.69096985 -223.43895996 73.3897522 -222.5925293 73.07940674 C-219.9589159 72.11387829 -217.32517997 71.14868477 -214.69140625 70.18359375 C-213.76991791 69.84592987 -212.84842957 69.50826599 -211.89901733 69.16036987 C-210.95249298 68.81354156 -210.00596863 68.46671326 -209.03076172 68.109375 C-208.05991638 67.75359375 -207.08907104 67.3978125 -206.08880615 67.03125 C-204.06863513 66.29113984 -202.04832865 65.55139933 -200.02789307 64.81201172 C-180.37517198 57.61741388 -160.78577399 50.26010765 -141.20703125 42.8671875 C-140.46347382 42.58642239 -139.71991638 42.30565727 -138.9538269 42.01638412 C-137.45559266 41.45064034 -135.9573614 40.88488866 -134.45913315 40.31912899 C-130.78401037 38.93135161 -127.10882859 37.5437306 -123.43359375 36.15625 C-122.71948082 35.88663515 -122.00536789 35.6170203 -121.26961517 35.33923531 C-108.72112395 30.60230334 -96.15767253 25.90660125 -83.58203125 21.2421875 C-66.53795661 14.9198045 -49.52599645 8.51522189 -32.53242493 2.05833435 C-30.71606492 1.36846473 -28.89904993 0.68032041 -27.08203125 -0.0078125 C-26.46041107 -0.28507172 -25.83879089 -0.56233093 -25.19833374 -0.84799194 C-16.42052077 -4.60100904 -8.66305338 -3.43081817 0 0 Z " fill="#032749" transform="translate(526.08203125,218.0078125)"/>
<path d="M0 0 C0.93810013 -0.01283524 1.87620026 -0.02567047 2.84272766 -0.03889465 C3.85006454 -0.04628159 4.85740143 -0.05366852 5.89526367 -0.0612793 C7.45998665 -0.07338692 7.45998665 -0.07338692 9.05632019 -0.08573914 C11.2627904 -0.09956017 13.4692818 -0.11029117 15.67578125 -0.11816406 C19.04037163 -0.13538107 22.40398026 -0.1792865 25.76831055 -0.22338867 C27.91478772 -0.23351588 30.06127322 -0.24203189 32.20776367 -0.2487793 C33.20902786 -0.26628738 34.21029205 -0.28379547 35.24189758 -0.30183411 C42.91188849 -0.27815312 47.20205659 1.24806263 52.83666992 6.66137695 C56.44697256 11.37507281 58.55095213 17.00942332 60.87573242 22.42700195 C61.65895874 24.22077271 61.65895874 24.22077271 62.45800781 26.05078125 C66.39551885 35.08200158 70.23512329 44.15596899 74.05419922 53.23779297 C77.37685016 61.13795385 80.76775456 69.00625588 84.18823242 76.86450195 C89.93704272 90.08843911 95.60513605 103.34619382 101.25073242 116.61450195 C101.68377686 117.63223694 102.11682129 118.64997192 102.56298828 119.69854736 C107.80798478 132.03036405 113.02347847 144.37387748 118.18823242 156.73950195 C122.09930909 166.10315654 126.07496695 175.43541016 130.12573242 184.73950195 C135.96831452 198.16159994 141.72845326 211.6184256 147.46905518 225.08444214 C148.47379925 227.44107648 149.4791103 229.7974692 150.48504639 232.15359497 C153.30862565 238.7682716 156.11634345 245.38933811 158.90966797 252.0168457 C160.24173251 255.15579409 161.59716962 258.28385532 162.95581055 261.41137695 C163.78910061 263.36424273 164.62181204 265.31735554 165.45385742 267.27075195 C165.83983093 268.14260132 166.22580444 269.01445068 166.62347412 269.91271973 C169.58463735 276.94893327 170.42905159 283.09185305 168.00073242 290.42700195 C165.35833613 296.54814932 161.82104331 299.96197458 156.01184082 303.10522461 C150.70651839 305.16458758 145.26140851 304.84576092 139.64135742 304.77075195 C138.35638367 304.77079224 137.07140991 304.77083252 135.74749756 304.77087402 C133.04429412 304.76923094 130.34193027 304.75071451 127.63891602 304.71899414 C124.18331487 304.67915836 120.72880156 304.67497331 117.27301407 304.68245697 C113.9581636 304.68626972 110.64365417 304.66545094 107.32885742 304.64575195 C106.09234436 304.64555054 104.8558313 304.64534912 103.58184814 304.6451416 C101.85415192 304.6212738 101.85415192 304.6212738 100.09155273 304.59692383 C99.08167297 304.58850464 98.07179321 304.58008545 97.03131104 304.57141113 C92.64641448 303.94943863 90.05528422 302.10345554 87.18823242 298.80200195 C86.54885742 297.93575195 85.90948242 297.06950195 85.25073242 296.17700195 C84.50823242 295.29012695 83.76573242 294.40325195 83.00073242 293.48950195 C81.25073242 291.17700195 81.25073242 291.17700195 81.25073242 289.17700195 C80.71448242 288.90887695 80.17823242 288.64075195 79.62573242 288.36450195 C77.25073242 287.17700195 77.25073242 287.17700195 74.73262024 285.63002014 C70.10855999 283.70036474 66.12699348 283.7340102 61.16552734 283.74121094 C60.16473648 283.7311351 59.16394562 283.72105927 58.13282776 283.7106781 C54.83217117 283.68223697 51.53197259 283.67632332 48.23120117 283.6730957 C45.92962966 283.6634516 43.62805998 283.65335889 41.32649231 283.64283752 C36.50391376 283.62488549 31.68149632 283.61931553 26.85888672 283.62109375 C20.69176021 283.62139845 14.52567117 283.58045142 8.3587904 283.52877712 C3.60512079 283.495352 -1.14829974 283.48933809 -5.90207481 283.49092293 C-8.17499046 283.487392 -10.44791317 283.474174 -12.72071266 283.45092583 C-15.90649811 283.4213905 -19.09005432 283.43020786 -22.27587891 283.44824219 C-23.20657196 283.43138367 -24.13726501 283.41452515 -25.09616089 283.39715576 C-32.05078542 283.49674152 -36.46920243 285.68386083 -41.74926758 290.17700195 C-44.2545999 292.95343098 -44.2545999 292.95343098 -46.06176758 295.86450195 C-48.35719303 299.34373172 -50.16446567 302.00229744 -53.74926758 304.17700195 C-56.52348328 304.57814026 -56.52348328 304.57814026 -59.75195312 304.61279297 C-60.9638884 304.63193253 -62.17582367 304.65107208 -63.42448425 304.67079163 C-65.38542778 304.67579933 -65.38542778 304.67579933 -67.38598633 304.6809082 C-68.7487672 304.69055737 -70.111545 304.70065044 -71.47431946 304.71116638 C-74.33158559 304.72911807 -77.18857991 304.73468891 -80.04589844 304.73291016 C-83.6866432 304.73260635 -87.32561851 304.77345367 -90.96594524 304.82522678 C-93.78265688 304.85879215 -96.59895102 304.86466153 -99.41584206 304.86308098 C-101.40380012 304.86829109 -103.39162779 304.90069948 -105.37931824 304.93373108 C-113.34721648 304.87382797 -118.88769527 303.83253573 -124.74926758 298.17700195 C-128.83707044 292.85232391 -131.26046672 287.92986386 -131.16479492 281.0456543 C-130.22229842 274.53899516 -127.15250848 268.48610449 -124.56176758 262.48950195 C-123.91911931 260.96970209 -123.27778239 259.44934712 -122.63769531 257.9284668 C-120.69771311 253.33472251 -118.72726552 248.75448244 -116.74926758 244.17700195 C-116.46253174 243.51218811 -116.1757959 242.84737427 -115.88037109 242.16241455 C-113.50575888 236.65717042 -111.12167556 231.15609807 -108.72167969 225.66186523 C-104.40700516 215.7767167 -100.25175741 205.82905658 -96.12426758 195.86450195 C-91.47499295 184.64272807 -86.73091182 173.47663432 -81.79589844 162.37670898 C-78.3221689 154.54028082 -74.98535609 146.6510214 -71.68676758 138.73950195 C-66.15601636 125.47754795 -60.5195134 112.26292766 -54.84848022 99.06039429 C-49.9195661 87.58511756 -45.01199087 76.10132692 -40.13989258 64.60180664 C-37.6959913 58.8339219 -35.24312353 53.06987077 -32.78662109 47.30734253 C-31.09645675 43.34245982 -29.40935937 39.37634364 -27.72973633 35.40698242 C-26.13127325 31.63135134 -24.52072564 27.86110007 -22.90100098 24.09454346 C-22.30829121 22.71089873 -21.71970232 21.32548014 -21.13562012 19.93817139 C-20.33572576 18.04010409 -19.5210213 16.14908077 -18.70239258 14.2590332 C-18.25025391 13.19918213 -17.79811523 12.13933105 -17.33227539 11.04736328 C-15.54732675 7.81083626 -13.45958393 5.6701351 -10.74926758 3.17700195 C-10.08926758 2.51700195 -9.42926758 1.85700195 -8.74926758 1.17700195 C-5.81831963 0.1927293 -3.07718915 0.03681997 0 0 Z " fill="#15B5A1" transform="translate(492.749267578125,311.822998046875)"/>
<path d="M0 0 C9.22278482 6.59948824 16.22699227 15.97642333 18.3125 27.3125 C19.35682188 40.56046896 17.34052344 50.88989878 8.875 61.58203125 C7.30452211 63.32133551 5.63110434 64.82621354 3.875 66.375 C0.922155 69.06465131 0.922155 69.06465131 1.51342773 72.49536133 C2.35123106 76.49751685 3.37020527 80.40803681 4.53515625 84.32421875 C4.75656784 85.08256516 4.97797943 85.84091156 5.20610046 86.62223816 C5.68000564 88.2436067 6.15599813 89.86436638 6.63391113 91.48455811 C7.38246368 94.02533361 8.1233984 96.5682201 8.86230469 99.11181641 C10.96397063 106.3386516 13.07814476 113.5611623 15.25413513 120.76600647 C15.83894429 122.70687719 16.41652692 124.64992075 16.99389648 126.59301758 C17.68751706 128.92616261 18.39336475 131.25572046 19.11352539 133.58081055 C20.88246145 139.57242788 22.1546945 144.23859785 20.3125 150.3125 C17.04946585 153.67262152 15.45209294 155.10779959 10.81529236 155.94068909 C9.529095 155.94165085 8.24289764 155.94261261 6.91772461 155.94360352 C5.84581123 155.95433647 5.84581123 155.95433647 4.75224304 155.96528625 C2.4057797 155.98210385 0.06124575 155.96281639 -2.28515625 155.94140625 C-3.92370257 155.94223551 -5.5622488 155.94469705 -7.20079041 155.94871521 C-10.6280127 155.95156831 -14.05457968 155.93691899 -17.48168945 155.90942383 C-21.86900075 155.87531421 -26.25514286 155.88137247 -30.64251041 155.9000864 C-34.02353113 155.91066649 -37.40428088 155.90171001 -40.78527641 155.88670158 C-42.40275708 155.88152849 -44.02026615 155.88199099 -45.637743 155.88824654 C-47.89981862 155.89371234 -50.16023299 155.87328437 -52.42211914 155.84594727 C-53.7075209 155.83974869 -54.99292267 155.83355011 -56.317276 155.8271637 C-60.2445227 155.22743759 -61.89529966 154.08251259 -64.6875 151.3125 C-68.1740106 144.33947879 -64.86206877 135.03654528 -62.80078125 128.06640625 C-62.50189499 127.01581528 -62.20300873 125.9652243 -61.89506531 124.88279724 C-60.94232753 121.54319638 -59.97184654 118.20908443 -59 114.875 C-58.36658618 112.67288588 -57.73441463 110.47041405 -57.10351562 108.26757812 C-56.79394928 107.18788254 -56.48438293 106.10818695 -56.16543579 104.99577332 C-55.55038641 102.84520593 -54.93722802 100.69409677 -54.32601929 98.54243469 C-52.91329163 93.57019772 -51.47857995 88.609395 -49.96533203 83.66674805 C-49.46448471 81.96032447 -48.9642808 80.25371187 -48.46484375 78.546875 C-48.21889969 77.7835939 -47.97295563 77.02031281 -47.71955872 76.23390198 C-46.97703299 73.8491512 -46.97703299 73.8491512 -46.6875 70.3125 C-48.72322297 66.94610272 -50.71563621 65.17082611 -53.82421875 62.77734375 C-57.21823406 59.8556198 -58.84816285 57.05168136 -60.75 53.0625 C-61.29785156 51.92296875 -61.84570312 50.7834375 -62.41015625 49.609375 C-66.57323842 38.86429442 -65.36041419 28.11379061 -61.23828125 17.58203125 C-55.89650997 6.31990892 -47.01859361 -0.92350587 -35.6875 -5.6875 C-23.72720588 -9.72537707 -10.35082985 -6.31963931 0 0 Z " fill="#032647" transform="translate(534.6875,415.6875)"/>
<path d="M0 0 C1.12011719 3.6953125 1.12011719 3.6953125 0.0390625 6.4375 C-0.42757812 7.283125 -0.89421875 8.12875 -1.375 9 C-3.27621909 12.38971441 -3.27621909 12.38971441 -4.41796875 16.0625 C-5.24225844 18.80644419 -6.85265514 20.06972772 -8.9375 22 C-11.6491628 24.51973023 -13.54109088 26.57805611 -15 30 C-16 27.5 -16 27.5 -16 24 C-14.56640625 22.3828125 -14.56640625 22.3828125 -12.5625 20.625 C-6.33693211 15.02528285 -3.4175161 7.48945017 0 0 Z " fill="#15C4AB" transform="translate(552,460)"/>
<path d="M0 0 C0 3.48216224 -0.90898491 5.38699536 -2.3125 8.5625 C-4.3780116 13.35868795 -6.01116571 18.0858951 -7.32421875 23.13671875 C-8 25 -8 25 -10 26 C-11.27265601 22.45441788 -10.75083745 20.68124252 -9.19921875 17.3046875 C-8.79896484 16.42425781 -8.39871094 15.54382813 -7.98632812 14.63671875 C-7.3434082 13.26966797 -7.3434082 13.26966797 -6.6875 11.875 C-6.06198242 10.49634766 -6.06198242 10.49634766 -5.42382812 9.08984375 C-2.29649235 2.29649235 -2.29649235 2.29649235 0 0 Z " fill="#16C8AD" transform="translate(479,318)"/>
<path d="M0 0 C0.66 0 1.32 0 2 0 C2.144375 0.7425 2.28875 1.485 2.4375 2.25 C2.623125 3.1575 2.80875 4.065 3 5 C3.12375 5.70125 3.2475 6.4025 3.375 7.125 C4.1276371 9.3829113 5.22274873 10.45456412 7 12 C4.41851492 11.64393309 3.17954253 11.16671807 1.25 9.375 C-0.43754802 6.16865877 -0.20576047 3.56651486 0 0 Z " fill="#01112E" transform="translate(469,558)"/>
</svg>
